<svg fill="none" height="48" width="160" xmlns="http://www.w3.org/2000/svg"><linearGradient id="a" gradientUnits="userSpaceOnUse" x1="21.435" x2="8.643" y1="10.451" y2="23.264"><stop offset="0" stop-color="#00a0ff"/><stop offset=".007" stop-color="#00a1ff"/><stop offset=".26" stop-color="#00beff"/><stop offset=".512" stop-color="#00d2ff"/><stop offset=".76" stop-color="#00dfff"/><stop offset="1" stop-color="#00e3ff"/></linearGradient><linearGradient id="b" gradientUnits="userSpaceOnUse" x1="40.536" x2="11.546" y1="23.914" y2="23.914"><stop offset="0" stop-color="#ffe000"/><stop offset=".409" stop-color="#ffbd00"/><stop offset=".775" stop-color="orange"/><stop offset="1" stop-color="#ff9c00"/></linearGradient><linearGradient id="c" gradientUnits="userSpaceOnUse" x1="29.753" x2="8.076" y1="28.714" y2="50.268"><stop offset="0" stop-color="#ff3a44"/><stop offset="1" stop-color="#c31162"/></linearGradient><linearGradient id="d" gradientUnits="userSpaceOnUse" x1="8.764" x2="18.425" y1="6.93" y2="16.551"><stop offset="0" stop-color="#32a071"/><stop offset=".069" stop-color="#2da771"/><stop offset=".476" stop-color="#15cf74"/><stop offset=".801" stop-color="#06e775"/><stop offset="1" stop-color="#00f076"/></linearGradient><linearGradient id="e" gradientUnits="userSpaceOnUse" x1="29.746" x2="12.386" y1="32.153" y2="49.541"><stop offset="0" stop-color="#cc2e36"/><stop offset="1" stop-color="#9c0e4e"/></linearGradient><linearGradient id="f" gradientUnits="userSpaceOnUse" x1="13.926" x2="2.658" y1="10.455" y2="21.741"><stop offset="0" stop-color="#008de0"/><stop offset=".007" stop-color="#008de0"/><stop offset=".26" stop-color="#00a7e0"/><stop offset=".512" stop-color="#00b8e0"/><stop offset=".76" stop-color="#00c4e0"/><stop offset="1" stop-color="#00c7e0"/></linearGradient><linearGradient id="g" gradientUnits="userSpaceOnUse" x1="40.535" x2="11.549" y1="24.003" y2="24.003"><stop offset="0" stop-color="#e0c500"/><stop offset=".409" stop-color="#e0a600"/><stop offset=".775" stop-color="#e09100"/><stop offset="1" stop-color="#e08900"/></linearGradient><linearGradient id="h" gradientUnits="userSpaceOnUse" x1="40.536" x2="11.55" y1="24.001" y2="24.001"><stop offset="0" stop-color="#ffe840"/><stop offset=".409" stop-color="#ffce40"/><stop offset=".775" stop-color="#ffbc40"/><stop offset="1" stop-color="#ffb540"/></linearGradient><linearGradient id="i" gradientUnits="userSpaceOnUse" x1="13.914" x2="3.061" y1="10.471" y2="20.871"><stop offset="0" stop-color="#40b8ff"/><stop offset=".007" stop-color="#40b9ff"/><stop offset=".26" stop-color="#40ceff"/><stop offset=".512" stop-color="#40ddff"/><stop offset=".76" stop-color="#40e7ff"/><stop offset="1" stop-color="#40eaff"/></linearGradient><linearGradient id="j" gradientUnits="userSpaceOnUse" x1="8.744" x2="16.496" y1="10.072" y2="17.837"><stop offset="0" stop-color="#65b895"/><stop offset=".069" stop-color="#62bd95"/><stop offset=".476" stop-color="#50db97"/><stop offset=".801" stop-color="#44ed98"/><stop offset="1" stop-color="#40f498"/></linearGradient><rect fill="#000" height="48" rx="8" width="160"/><g fill="#fff"><path d="M56.81 12.291c0 1.005-.297 1.806-.892 2.403-.676.71-1.558 1.066-2.64 1.066-1.038 0-1.92-.36-2.646-1.081-.726-.72-1.089-1.614-1.089-2.68s.363-1.959 1.09-2.68c.725-.72 1.607-1.08 2.644-1.08.515 0 1.008.1 1.476.301.468.202.843.47 1.124.804l-.632.634c-.476-.57-1.131-.854-1.968-.854-.757 0-1.41.266-1.963.799-.552.533-.828 1.225-.828 2.076s.276 1.543.828 2.077a2.73 2.73 0 0 0 1.963.799c.803 0 1.472-.268 2.008-.804.347-.35.549-.835.602-1.458h-2.61v-.865h3.483c.034.188.05.368.05.543"/><path d="M56.81 12.293h-.12c-.001.982-.288 1.745-.858 2.318h-.001v.002c-.655.686-1.497 1.027-2.555 1.028-1.01-.001-1.855-.346-2.56-1.046S49.663 13.039 49.661 12c.002-1.039.35-1.894 1.054-2.594.706-.7 1.551-1.045 2.561-1.047.5 0 .975.098 1.428.292.454.196.813.453 1.08.772l.092-.078-.085-.084-.632.633.085.085.092-.077c-.498-.598-1.197-.9-2.06-.897a2.85 2.85 0 0 0-2.046.833c-.576.555-.866 1.285-.865 2.162-.001.877.288 1.608.865 2.163a2.85 2.85 0 0 0 2.046.833c.83.002 1.536-.28 2.092-.839.372-.373.583-.89.638-1.533l.011-.13h-2.621v-.625h3.363v-.12l-.118.021c.033.182.049.355.049.523h.24c0-.183-.018-.37-.053-.565l-.017-.099h-3.704v1.105h2.73v-.12l-.119-.01c-.053.604-.245 1.058-.568 1.384-.515.513-1.146.767-1.923.768a2.608 2.608 0 0 1-1.88-.765c-.528-.512-.79-1.165-.792-1.99.002-.826.264-1.48.792-1.99a2.608 2.608 0 0 1 1.88-.766c.81.002 1.422.27 1.876.811l.085.1.724-.726.077-.077-.07-.084c-.295-.352-.687-.63-1.169-.838a3.821 3.821 0 0 0-1.523-.312c-1.065 0-1.984.374-2.73 1.116-.748.74-1.125 1.672-1.124 2.765-.001 1.094.376 2.025 1.125 2.766.745.742 1.664 1.116 2.73 1.115 1.108.001 2.028-.368 2.727-1.102l-.087-.083.085.085c.62-.622.928-1.46.927-2.489h-.12zm5.522-3.008h-3.274v2.283h2.952v.865h-2.952v2.283h3.274v.884h-4.197V8.4h4.197z"/><path d="M62.332 9.286v-.12h-3.394v2.523h2.953v.624h-2.953v2.524h3.274v.644h-3.957v-6.96h3.957v.765h.12v-.12.12h.12V8.28h-4.436v7.44h4.436v-1.124h-3.274v-2.043h2.952v-1.105h-2.952V9.406h3.274v-.12zm3.895 6.315h-.924V9.286h-2.008V8.4h4.94v.885h-2.008V15.6"/><path d="M66.228 15.601v-.12h-.805V9.166h-2.008V8.52h4.7v.645h-2.007V15.6h.12v-.12.12h.12V9.406h2.007V8.28h-5.18v1.125h2.008v6.315h1.164v-.12h-.12zm5.581 0v-7.2h.924v7.2z"/><path d="M71.807 15.6h.12V8.521h.684v6.96h-.804v.12h.12-.12v.12h1.043V8.28h-1.162v7.44h.12v-.12zm5.02 0h-.924V9.287h-2.007V8.4h4.939v.885h-2.008z"/><path d="M76.829 15.6v-.12h-.804V9.164h-2.008V8.52h4.7v.644h-2.008V15.6h.12v-.12.12h.12V9.404h2.008V8.28h-5.18v1.124h2.008v6.316h1.164v-.12zm6.77-1.534c.532.54 1.183.81 1.953.81s1.421-.27 1.952-.81c.533-.54.8-1.229.8-2.066 0-.838-.267-1.528-.8-2.067-.53-.54-1.182-.81-1.952-.81s-1.42.27-1.953.81c-.531.54-.798 1.229-.798 2.067 0 .837.267 1.527.798 2.066zm4.589.603c-.707.728-1.586 1.091-2.636 1.091-1.051 0-1.93-.363-2.635-1.09-.707-.728-1.059-1.618-1.059-2.67 0-1.053.352-1.943 1.06-2.67.704-.728 1.583-1.092 2.634-1.092 1.045 0 1.921.366 2.631 1.097.71.73 1.064 1.619 1.064 2.665 0 1.052-.354 1.942-1.06 2.67z"/><path d="M83.599 14.067l-.085.085a2.76 2.76 0 0 0 2.038.844 2.756 2.756 0 0 0 2.038-.844c.555-.562.834-1.289.834-2.152s-.279-1.59-.834-2.15a2.756 2.756 0 0 0-2.038-.845 2.758 2.758 0 0 0-2.038.844c-.554.562-.834 1.288-.833 2.151-.001.863.279 1.59.833 2.152l.085-.085.085-.084c-.508-.518-.762-1.17-.763-1.983 0-.812.255-1.464.763-1.982.513-.518 1.126-.772 1.868-.773.742.001 1.356.255 1.867.773.51.518.764 1.17.764 1.982 0 .813-.255 1.465-.764 1.983-.511.518-1.125.772-1.867.773-.742-.001-1.355-.255-1.868-.773zm4.589.603l-.086-.083c-.687.705-1.527 1.053-2.55 1.054-1.024-.001-1.864-.35-2.55-1.054L83 14.583l.003.004c-.686-.708-1.024-1.56-1.025-2.587 0-1.025.34-1.878 1.025-2.586.685-.705 1.525-1.053 2.549-1.055 1.016.002 1.854.352 2.545 1.06.688.711 1.029 1.563 1.03 2.581-.001 1.026-.34 1.88-1.025 2.587l.086.083.086.083C89 14.006 89.367 13.08 89.367 12c0-1.072-.368-1.997-1.098-2.748-.73-.753-1.644-1.134-2.717-1.133-1.078-.001-1.996.378-2.721 1.129v-.001c-.728.748-1.094 1.674-1.093 2.753 0 1.08.365 2.006 1.093 2.754l.003.003-.003-.004c.725.75 1.643 1.13 2.721 1.128 1.078.001 1.995-.377 2.722-1.128zm2.355.93V8.4h1.124l3.494 5.601h.04l-.04-1.387V8.4h.924v7.2h-.964l-3.655-5.872h-.04l.04 1.388V15.6z"/><path d="M90.545 15.601h.12v-7.08h.938l3.494 5.601h.229l-.043-1.509V8.521h.684v6.96h-.777L91.535 9.61h-.23l.043 1.51v4.362h-.803v.12h.12-.12v.12h1.043v-4.606l-.04-1.39-.12.004v.12h.04v-.12l-.101.064 3.69 5.928h1.15v-7.44h-1.164v4.335l.04 1.39.12-.004v-.12h-.04v.12l.102-.063-3.53-5.658h-1.31v7.44h.12v-.12zm37.572 20.4h2.236V21h-2.236v15zm20.136-9.597l-2.563 6.504h-.076l-2.66-6.504h-2.408l3.988 9.09-2.274 5.056h2.333l6.146-14.146zm-12.678 7.893c-.733 0-1.754-.366-1.754-1.274 0-1.158 1.273-1.601 2.37-1.601.984 0 1.445.212 2.043.502-.174 1.389-1.369 2.373-2.659 2.373zm.27-8.221c-1.619 0-3.295.714-3.989 2.296l1.984.83c.425-.83 1.214-1.1 2.043-1.1 1.156 0 2.332.695 2.351 1.93v.154c-.405-.231-1.271-.578-2.332-.578-2.138 0-4.316 1.177-4.316 3.377 0 2.007 1.754 3.3 3.718 3.3 1.504 0 2.332-.675 2.853-1.466h.077v1.157h2.157v-5.751c0-2.663-1.984-4.15-4.546-4.15zm-13.816 2.154h-3.18v-5.142h3.18c1.671 0 2.62 1.386 2.62 2.57 0 1.163-.949 2.572-2.62 2.572zm-.058-7.23h-5.356v15h2.234v-5.683h3.122c2.478 0 4.913-1.797 4.913-4.66 0-2.861-2.435-4.658-4.913-4.658zm-29.21 13.3c-1.544 0-2.837-1.295-2.837-3.074 0-1.797 1.293-3.112 2.837-3.112 1.525 0 2.722 1.314 2.722 3.112 0 1.779-1.197 3.074-2.722 3.074zm2.567-7.056h-.077c-.502-.6-1.467-1.14-2.683-1.14-2.548 0-4.883 2.242-4.883 5.122 0 2.861 2.335 5.085 4.883 5.085 1.216 0 2.181-.542 2.683-1.16h.077v.734c0 1.953-1.042 2.997-2.721 2.997-1.37 0-2.22-.986-2.568-1.817l-1.949.812c.56 1.353 2.046 3.016 4.517 3.016 2.625 0 4.844-1.547 4.844-5.317v-9.163h-2.123v.83zM98.995 36h2.239V21h-2.239v15.002zm5.54-4.949c-.058-1.972 1.525-2.977 2.663-2.977.889 0 1.641.445 1.892 1.083zm6.948-1.7c-.424-1.142-1.718-3.249-4.362-3.249-2.625 0-4.806 2.069-4.806 5.104 0 2.861 2.162 5.104 5.057 5.104 2.336 0 3.687-1.431 4.247-2.262l-1.737-1.16c-.579.85-1.371 1.411-2.51 1.411s-1.949-.522-2.471-1.546l6.814-2.823-.232-.58zm-54.282-1.683v2.165h5.173c-.155 1.218-.56 2.107-1.178 2.726-.752.754-1.93 1.585-3.995 1.585-3.184 0-5.674-2.57-5.674-5.76s2.49-5.762 5.674-5.762c1.718 0 2.972.677 3.899 1.547l1.525-1.527c-1.293-1.238-3.011-2.185-5.424-2.185-4.362 0-8.03 3.557-8.03 7.927 0 4.369 3.668 7.926 8.03 7.926 2.355 0 4.13-.773 5.52-2.224 1.429-1.43 1.873-3.44 1.873-5.065a7.03 7.03 0 0 0-.116-1.353H57.2zM70.475 34.3c-1.545 0-2.877-1.276-2.877-3.093 0-1.837 1.332-3.093 2.877-3.093 1.543 0 2.875 1.256 2.875 3.093 0 1.817-1.332 3.093-2.875 3.093zm0-8.197c-2.819 0-5.116 2.146-5.116 5.104 0 2.938 2.297 5.104 5.116 5.104 2.817 0 5.114-2.166 5.114-5.104 0-2.958-2.297-5.104-5.114-5.104zM81.632 34.3c-1.544 0-2.876-1.276-2.876-3.093 0-1.837 1.332-3.093 2.876-3.093s2.876 1.256 2.876 3.093c0 1.817-1.332 3.093-2.876 3.093zm0-8.197c-2.818 0-5.114 2.146-5.114 5.104 0 2.938 2.296 5.104 5.114 5.104s5.115-2.166 5.115-5.104c0-2.958-2.297-5.104-5.115-5.104z"/></g><path d="M12.591 9.134c-.402.363-.642.969-.642 1.774v-.182V37.27v-.175c0 .743.206 1.317.555 1.686l.089.086c.282.255.644.39 1.058.39.405 0 .861-.13 1.342-.403l17.39-9.896 5.974-3.4c.759-.432 1.185-.989 1.256-1.556V24c-.071-.569-.497-1.125-1.256-1.557l-5.974-3.4-17.39-9.896c-.482-.274-.938-.404-1.344-.404a1.54 1.54 0 0 0-1.058.39z" fill="#00c1ff"/><path d="M12.593 38.867l-.09-.085c-.348-.37-.554-.943-.554-1.686v.175-26.54.176c0-.804.24-1.41.642-1.774l14.844 14.868z" fill="url(#a)"/><path d="M32.382 28.957L27.434 24l4.948-4.957 5.974 3.4c.758.431 1.184.987 1.255 1.556v.002c-.07.568-.497 1.125-1.255 1.556z" fill="url(#b)"/><path d="M13.648 39.258a1.54 1.54 0 0 1-1.058-.39L27.432 24l4.949 4.957-17.39 9.897c-.482.273-.937.403-1.343.403z" fill="url(#c)"/><path d="M27.434 24.002L12.59 9.135c.282-.255.643-.39 1.058-.39.406 0 .862.13 1.344.404l17.39 9.896z" fill="url(#d)"/><path d="M13.652 39.434a1.55 1.55 0 0 1-1.06-.39.039.039 0 0 0-.003-.004l-.078-.075-.007-.008.089-.09c.282.256.644.391 1.059.39.405 0 .86-.128 1.342-.402l17.39-9.897.111.112-.113.064-17.388 9.897c-.439.248-.856.378-1.233.4a2.223 2.223 0 0 1-.11.003" fill="url(#e)"/><path d="M12.504 38.957c-.349-.37-.555-.943-.555-1.686v-.175c0 .743.206 1.317.555 1.686l.089.086-.09.089z" fill="url(#f)"/><path d="M32.494 29.07l-.111-.111 5.973-3.4c.758-.431 1.184-.988 1.255-1.555 0 .208-.046.416-.138.618-.186.409-.559.794-1.117 1.113z" fill="url(#g)"/><path d="M39.612 24c-.072-.569-.497-1.125-1.256-1.557l-5.973-3.399.111-.111 5.862 3.336c.836.476 1.255 1.103 1.256 1.731z" fill="url(#h)"/><path d="M11.95 10.906v-.183c0-.066.001-.13.004-.194v-.012c.037-.64.235-1.14.55-1.472l.087.088c-.402.363-.642.969-.642 1.773z" fill="url(#i)"/><path d="M32.383 19.043l-17.39-9.897c-.481-.274-.938-.403-1.344-.403a1.54 1.54 0 0 0-1.057.39l-.088-.089c.027-.029.056-.057.085-.084l.003-.003a1.54 1.54 0 0 1 1.048-.39h.01c.405 0 .862.13 1.344.404l17.501 9.96z" fill="url(#j)"/></svg>